<svg xmlns="http://www.w3.org/2000/svg" width="184" height="184" viewBox="0 0 184 184" fill="none">
  <g opacity="0.07">
    <path d="M117.731 171.398C100.942 176.853 82.858 176.853 66.0697 171.398C49.2813 165.943 34.6508 155.314 24.275 141.033C13.8993 126.752 8.31091 109.552 8.31091 91.9C8.31091 74.2477 13.8993 57.0485 24.275 42.7675C34.6508 28.4865 49.2813 17.8568 66.0697 12.4019C82.858 6.94708 100.942 6.94707 117.731 12.4019C134.519 17.8568 149.149 28.4865 159.525 42.7675C169.901 57.0485 175.489 74.2477 175.489 91.9" stroke="#0D0F45" stroke-width="2"/>
    <path d="M105.68 27.0728C119.37 29.9827 131.787 37.152 141.153 47.5531C150.518 57.9541 156.35 71.053 157.813 84.9724C159.276 98.8918 156.295 112.917 149.297 125.038C142.299 137.159 131.643 146.753 118.857 152.446C106.071 158.139 91.8109 159.637 78.1207 156.727C64.4305 153.817 52.013 146.648 42.6478 136.247C33.2826 125.846 27.4506 112.747 25.9877 98.8278C24.5247 84.9084 27.5058 70.8832 34.5038 58.7623" stroke="#0D0F45" stroke-width="2"/>
    <path d="M58.9509 128.494C51.2229 121.536 45.8962 112.31 43.7342 102.138C41.5721 91.9664 42.6857 81.3713 46.9153 71.8714C51.1449 62.3715 58.2735 54.4544 67.2792 49.255C76.285 44.0555 86.7056 41.8405 97.0476 42.9275C107.39 44.0145 117.122 48.3476 124.85 55.3059C132.578 62.2641 137.904 71.4903 140.067 81.662C142.229 91.8337 141.115 102.429 136.885 111.929C132.656 121.429 125.527 129.346 116.521 134.545" stroke="#0D0F45" stroke-width="2"/>
  </g>
</svg>